<svg xmlns="http://www.w3.org/2000/svg" version="1.1" xmlns:xlink="http://www.w3.org/1999/xlink" xmlns:svgjs="http://svgjs.dev/svgjs" width="686" height="686"><svg xmlns="http://www.w3.org/2000/svg" width="686" height="686" viewBox="0 0 686 686" version="1.1"><path d="M 307.868 90.903 C 296.464 94.978, 279.240 103.660, 269.500 110.242 C 252.479 121.746, 225.601 148.792, 215.075 165.007 C 213.109 168.036, 208.775 174.336, 205.443 179.007 C 188.063 203.379, 184.954 207.986, 182.158 213.509 C 175.519 226.625, 175.764 237.811, 182.889 246.894 C 184.444 248.877, 186.277 252.222, 186.962 254.327 C 188.685 259.628, 192.841 261.987, 200.500 262.013 C 205.381 262.029, 208.449 262.876, 216.946 266.553 C 224.430 269.791, 228.160 270.904, 230.101 270.478 C 231.591 270.151, 233.092 270.340, 233.437 270.898 C 234.287 272.273, 237 271.128, 237 269.393 C 237 268.627, 237.436 268, 237.969 268 C 238.501 268, 238.658 268.727, 238.317 269.616 C 237.811 270.934, 238.048 271.051, 239.598 270.251 C 240.644 269.712, 242.084 269.479, 242.798 269.734 C 243.512 269.990, 246.426 269.437, 249.274 268.505 C 255.715 266.398, 270.949 264.109, 271.593 265.151 C 271.856 265.576, 269.467 266.631, 266.285 267.496 C 250.634 271.750, 248.128 273.103, 245.453 278.741 C 244.560 280.623, 244.015 282.348, 244.242 282.575 C 244.469 282.802, 246.660 281.067, 249.111 278.718 C 252.421 275.547, 255.163 274.005, 259.769 272.724 C 269.710 269.960, 274.060 270.983, 264.858 273.921 C 258.400 275.983, 252.289 280.772, 249.950 285.604 C 247.569 290.521, 247.945 292.265, 250.823 289.661 C 251.832 288.747, 253.683 288, 254.936 288 C 256.462 288, 257.039 287.545, 256.684 286.620 C 256.393 285.860, 257.431 283.723, 258.991 281.870 L 261.828 278.500 262.808 281 C 263.347 282.375, 264.948 284.579, 266.365 285.897 C 268.711 288.079, 269.524 288.240, 275.422 287.690 C 283.581 286.928, 292.971 284.239, 293.650 282.471 C 293.934 281.729, 293.722 280.325, 293.177 279.352 C 292.456 278.063, 292.586 277.292, 293.659 276.508 C 294.917 275.588, 294.790 275.066, 292.788 272.905 C 291.499 271.515, 288.557 269.505, 286.248 268.439 C 283.528 267.182, 282.043 265.840, 282.026 264.625 C 282.005 263.108, 282.525 262.856, 284.750 263.305 C 286.262 263.610, 288.231 264.143, 289.124 264.489 C 290.154 264.887, 291.953 264.017, 294.040 262.111 C 296.902 259.497, 297.155 258.891, 295.976 257.471 C 295.231 256.573, 294.338 253.638, 293.993 250.948 C 293.476 246.915, 293.602 246.255, 294.714 247.178 C 295.743 248.032, 296.403 247.847, 297.499 246.398 C 298.290 245.354, 298.951 244.162, 298.968 243.750 C 298.986 243.338, 299.723 243, 300.607 243 C 301.648 243, 302.004 243.546, 301.618 244.552 C 301.245 245.525, 301.432 245.851, 302.119 245.427 C 302.860 244.969, 302.982 245.481, 302.497 247.011 C 301.836 249.092, 302.006 249.215, 304.637 248.555 C 308.165 247.669, 307.798 248.124, 308.770 243.444 C 309.343 240.685, 310.109 239.505, 311.327 239.503 C 312.284 239.501, 313.510 238.825, 314.052 238 C 314.910 236.693, 315.169 236.725, 316.068 238.250 C 317.331 240.394, 323.224 240.748, 322.412 238.631 C 322.093 237.800, 322.762 237.034, 324.115 236.680 C 325.724 236.259, 327.170 236.907, 329.325 239.013 C 330.965 240.617, 332.688 241.693, 333.153 241.405 C 333.619 241.117, 334 241.809, 334 242.941 C 334 244.691, 332.803 245.624, 331.679 244.750 C 330.869 244.121, 328 248.064, 328 249.806 C 328 250.878, 327.325 252.315, 326.500 253 C 325.675 253.685, 325 255.104, 325 256.154 C 325 257.204, 324.325 258.322, 323.500 258.638 C 322.675 258.955, 322 259.642, 322 260.166 C 322 260.690, 322.450 260.840, 323 260.500 C 323.550 260.160, 324 260.359, 324 260.941 C 324 261.523, 323.584 262, 323.075 262 C 321.449 262, 323.075 272.662, 325.714 279.305 C 327.410 283.574, 327.774 290.948, 326.793 301.191 C 326.352 305.801, 325.719 307.337, 323.464 309.278 L 320.679 311.673 323.673 316.086 C 326.507 320.264, 326.609 320.757, 325.584 325.314 C 324.799 328.798, 323.304 331.353, 320.170 334.564 C 317.789 337.004, 315.201 339, 314.420 339 C 313.639 339, 313 339.888, 313 340.974 C 313 342.930, 317.456 346, 320.295 346 C 321.062 346, 322.452 346.842, 323.383 347.871 C 324.651 349.272, 326.937 349.861, 332.479 350.217 C 336.871 350.499, 340.882 351.348, 342.342 352.304 C 344.092 353.451, 345.626 353.686, 347.651 353.118 C 351.248 352.108, 356.104 352.450, 358.821 353.904 C 359.975 354.522, 361.275 354.932, 361.709 354.815 C 362.917 354.492, 367.003 356.045, 366.978 356.817 C 366.966 357.193, 366.123 358.583, 365.106 359.906 C 363.852 361.537, 362.696 362.097, 361.517 361.645 C 360.234 361.152, 359.930 361.374, 360.357 362.489 C 361.404 365.216, 359.943 366.758, 355.186 367.951 C 339.909 371.782, 337.592 372.631, 333.882 375.753 C 331.607 377.667, 329.256 378.330, 322.265 379.030 C 313.752 379.881, 305.388 381.721, 306.225 382.559 C 306.452 382.786, 309.757 382.311, 313.569 381.503 C 317.381 380.695, 322.975 380.018, 326 379.998 C 329.025 379.977, 335.100 379.310, 339.500 378.515 C 343.900 377.720, 349.461 377.054, 351.857 377.035 C 355.639 377.005, 356.113 377.231, 355.446 378.750 C 355.023 379.712, 354.712 381.625, 354.755 383 C 354.839 385.691, 352.466 389, 350.452 389 C 349.771 389, 348.965 389.649, 348.660 390.443 C 348.250 391.511, 349.065 391.965, 351.803 392.193 C 354.177 392.390, 355.406 392.962, 355.236 393.791 C 354.788 395.989, 356.925 398.966, 358.515 398.356 C 359.332 398.042, 360 398.311, 360 398.952 C 360 399.593, 360.404 399.868, 360.898 399.563 C 361.392 399.257, 363.254 400.369, 365.036 402.033 C 366.817 403.697, 368.509 404.825, 368.795 404.538 C 369.082 404.252, 369.915 404.514, 370.646 405.121 C 371.649 405.954, 372.129 405.829, 372.595 404.613 C 372.936 403.726, 373.793 403, 374.500 403 C 377.146 403, 377.923 408.577, 376.034 414 C 375.555 415.375, 374.900 417.706, 374.580 419.181 C 374.190 420.971, 373.250 421.967, 371.748 422.181 C 370.026 422.425, 369.427 423.260, 369.187 425.750 C 369.014 427.538, 368.452 429.056, 367.937 429.125 C 365.977 429.386, 365.464 429.553, 364.250 430.324 C 363.563 430.761, 363 431.631, 363 432.259 C 363 433.081, 363.336 433.064, 364.200 432.200 C 366.199 430.201, 367.025 430.851, 365.827 433.481 C 365.205 434.845, 363.805 436.244, 362.716 436.590 C 361.408 437.005, 361.129 437.462, 361.895 437.935 C 362.769 438.475, 362.775 439.950, 361.921 443.931 C 360.490 450.606, 354.657 457, 350 457 C 348.350 457, 347 457.403, 347 457.896 C 347 458.838, 331.648 461.960, 326.500 462.065 L 323.500 462.127 326 463.170 C 327.626 463.848, 335.065 463.991, 347.271 463.579 C 364.672 462.992, 366.092 463.076, 366.721 464.723 C 367.094 465.700, 368.885 467.903, 370.700 469.618 C 374.005 472.741, 374.874 475.342, 373 476.500 C 371.156 477.640, 371.958 480, 374.189 480 L 376.377 480 374.230 482 C 373.050 483.100, 371.567 484, 370.935 484 C 370.303 484, 370.045 484.675, 370.362 485.500 C 370.753 486.520, 370.308 487, 368.969 487 C 367.886 487, 367 487.480, 367 488.067 C 367 488.654, 367.788 488.910, 368.750 488.636 C 369.713 488.362, 373.200 487.608, 376.500 486.960 C 384.169 485.455, 392.302 481.508, 393.538 478.692 C 394.067 477.486, 395.914 475.793, 397.642 474.930 C 399.370 474.066, 401.512 472.630, 402.404 471.739 C 403.295 470.848, 406.061 469.813, 408.551 469.440 C 412.175 468.897, 413.480 469.124, 415.091 470.582 C 417.087 472.388, 417.072 472.420, 413.302 474.401 C 404.819 478.859, 393.815 483.403, 381.500 487.535 C 374.350 489.934, 364 493.491, 358.500 495.440 C 345.466 500.057, 342.055 500.030, 334.201 495.250 C 324.979 489.638, 318.963 484.175, 316.959 479.596 C 315.974 477.343, 314.377 471.450, 313.411 466.500 C 311.796 458.220, 311.258 457.041, 306.692 451.767 L 301.730 446.034 299.027 450.296 C 297.541 452.639, 295.239 455.234, 293.912 456.060 C 287.180 460.256, 272.094 466.329, 260.500 469.511 C 243.342 474.222, 226.074 479.617, 221.273 481.767 C 219.146 482.720, 207.531 489.350, 195.462 496.500 C 176.303 507.850, 172.417 510.590, 164.841 518.087 C 157.045 525.803, 155.612 527.832, 150.723 538.087 C 143.950 552.292, 141.182 559.749, 136.088 577.500 C 133.879 585.200, 130.705 595.523, 129.035 600.440 C 127.365 605.358, 126.361 609.633, 126.804 609.940 C 127.248 610.248, 131.186 613.236, 135.555 616.579 C 184.581 654.094, 244.682 677.827, 307.554 684.499 C 325.525 686.406, 360.475 686.406, 378.446 684.499 C 444.772 677.460, 505.891 652.298, 558.500 610.370 C 580.268 593.021, 609.100 562.126, 624.482 539.666 L 629.848 531.832 623.174 525.897 C 604.837 509.592, 595.944 503.474, 583.450 498.569 C 547.074 484.287, 533.462 477.235, 527.260 469.457 C 525.742 467.553, 520.520 462.981, 515.656 459.296 C 505.808 451.834, 500.892 445.657, 493.533 431.500 C 488.124 421.094, 484.173 416.504, 478.359 413.875 L 474.217 412.003 472.127 400.751 C 470.352 391.203, 469.995 384.900, 469.768 359.112 L 469.500 328.725 473.580 327.518 C 480.718 325.407, 483.476 322.509, 488.358 311.990 C 494.320 299.146, 501.255 275.399, 501.352 267.500 C 501.444 260.035, 498.014 249.496, 494.048 245.054 C 491.564 242.272, 491.300 241.437, 492.140 239.028 C 492.839 237.022, 492.686 234.575, 491.595 230.366 C 490.760 227.140, 489.381 219.872, 488.532 214.216 C 483.733 182.256, 474.799 158.825, 457.229 132.125 C 449.646 120.601, 437.524 108.081, 430.242 104.249 C 424.291 101.118, 398.630 92.924, 389 91.079 C 375.086 88.414, 357.404 87.003, 338.530 87.052 L 318.500 87.103 307.868 90.903 M 379.526 246.959 C 379.112 247.627, 377.894 247.944, 376.819 247.663 C 373.249 246.729, 365 250.619, 365 253.236 C 365 254.250, 383.211 253.606, 384.951 252.530 C 386.730 251.431, 386.110 249, 384.050 249 C 382.977 249, 381.689 248.267, 381.188 247.372 C 380.514 246.167, 380.081 246.059, 379.526 246.959 M 373.948 261.563 C 372.760 262.994, 372.868 263.150, 374.837 262.846 C 376.070 262.656, 377.095 262.061, 377.115 261.525 C 377.176 259.842, 375.358 259.864, 373.948 261.563 M 366.082 264.560 C 362.562 268.568, 362.719 269.560, 367.020 270.504 C 370.349 271.236, 370.117 272.997, 366.691 273.006 C 362.018 273.017, 357 275.055, 357 276.940 C 357 277.955, 357.675 279.045, 358.500 279.362 C 359.325 279.678, 360 280.760, 360 281.766 C 360 282.771, 361.845 285.373, 364.100 287.547 L 368.200 291.500 367.673 298.810 C 367.382 302.831, 366.663 306.701, 366.074 307.411 C 364.897 308.830, 367.348 312.672, 376.326 323.477 C 381.739 329.992, 384.096 334.677, 384.224 339.173 C 384.269 340.767, 384.695 342.311, 385.170 342.605 C 385.644 342.898, 385.769 343.564, 385.447 344.085 C 385.125 344.606, 384.465 344.788, 383.981 344.488 C 382.844 343.785, 380.514 347.997, 380.843 350.161 C 380.982 351.075, 380.624 352.114, 380.048 352.470 C 379.472 352.827, 379.014 353.654, 379.032 354.309 C 379.049 354.964, 379.694 354.667, 380.465 353.650 C 381.360 352.468, 382.343 352.098, 383.183 352.625 C 383.908 353.079, 385.291 353.320, 386.257 353.161 C 387.223 353.002, 388.273 353.547, 388.590 354.373 C 388.906 355.198, 389.809 355.627, 390.595 355.325 C 391.382 355.023, 392.706 355.341, 393.537 356.031 C 394.368 356.721, 395.374 356.959, 395.773 356.561 C 396.171 356.162, 395.710 355.261, 394.748 354.558 C 392.605 352.991, 392.466 351, 394.500 351 C 395.325 351, 396 350.550, 396 350 C 396 347.583, 400.665 349.207, 403.335 352.553 C 407.658 357.971, 409.531 366.269, 405.275 361.147 C 404.299 359.973, 403.044 359.346, 402.486 359.756 C 400.914 360.911, 395.635 372.289, 395.762 374.250 C 395.825 375.212, 395.229 376, 394.438 376 C 392.912 376, 392.442 378.537, 393.811 379.383 C 394.979 380.105, 394.387 386.143, 393.069 386.957 C 392.458 387.335, 392.159 388.736, 392.405 390.072 C 392.650 391.407, 392.885 393.245, 392.926 394.156 C 393.037 396.629, 397 395.277, 397 392.767 C 397 391.213, 397.479 390.892, 399.149 391.329 C 403.500 392.467, 406.937 390.883, 410.016 386.322 C 411.657 383.890, 413 380.994, 413 379.888 C 413 378.781, 413.725 375.659, 414.611 372.949 C 415.648 369.780, 415.948 367.039, 415.453 365.262 C 414.479 361.768, 414.339 361.014, 414.152 358.240 C 414.069 356.997, 413.212 355.306, 412.250 354.482 C 410.779 353.223, 410.580 351.791, 411 345.492 C 411.275 341.371, 411.154 338, 410.731 338 C 410.308 338, 410.244 336.875, 410.589 335.500 C 410.976 333.960, 410.791 333, 410.108 333 C 409.499 333, 409 332.100, 409 331 C 409 329.900, 409.645 329, 410.433 329 C 412.410 329, 413.248 325.783, 412.076 322.699 C 411.410 320.948, 411.439 320.020, 412.168 319.777 C 412.756 319.581, 413.349 317.414, 413.487 314.961 C 413.749 310.279, 415.888 304, 417.219 304 C 417.649 304, 418 303.394, 418 302.654 C 418 301.913, 418.705 299.895, 419.566 298.169 C 421.011 295.272, 420.991 294.779, 419.316 291.765 C 418.317 289.969, 417.105 288.213, 416.622 287.862 C 416.139 287.511, 416.028 286.764, 416.375 286.202 C 417.441 284.477, 415.998 282.242, 413.022 281.009 C 411.404 280.339, 406.930 279.978, 402.592 280.168 C 397.195 280.404, 394.996 280.155, 394.998 279.309 C 394.999 278.654, 395.453 277.838, 396.008 277.495 C 398.136 276.180, 393.719 273.541, 389.592 273.663 C 387.342 273.730, 384.851 273.270, 384.058 272.642 C 382.948 271.763, 382.789 271.788, 383.367 272.750 C 383.842 273.541, 383.534 274, 382.528 274 C 381.653 274, 380.679 273.328, 380.364 272.506 C 380.048 271.684, 379.363 271.275, 378.842 271.598 C 377.524 272.412, 372.195 266.626, 371.421 263.539 C 370.577 260.178, 369.798 260.327, 366.082 264.560 M 267.639 277.694 C 266.444 278.889, 266.994 281, 268.500 281 C 269.325 281, 270 280.352, 270 279.559 C 270 277.888, 268.573 276.761, 267.639 277.694 M 298.223 341.557 C 297 342.413, 296 343.933, 296 344.934 C 296 348.069, 298.786 349.344, 305.812 349.424 L 312.500 349.500 312.500 346.619 C 312.500 341.444, 303.127 338.121, 298.223 341.557 M 288.238 384.872 C 288.440 385.841, 289.371 386.385, 290.538 386.215 C 291.617 386.058, 295.079 385.579, 298.231 385.151 C 301.383 384.722, 304.156 384.175, 304.394 383.936 C 304.632 383.696, 301.018 383.442, 296.363 383.372 C 289.033 383.261, 287.946 383.462, 288.238 384.872" stroke="none" fill="#251f1e" fill-rule="evenodd"></path><path d="M 306.338 1.550 C 240.964 8.687, 179.606 34.103, 127.500 75.630 C 113.376 86.887, 86.887 113.376, 75.630 127.500 C 33.702 180.109, 8.540 241.228, 1.501 307.554 C -0.406 325.525, -0.406 360.475, 1.501 378.446 C 9.680 455.518, 42.573 526.065, 96.196 581.540 C 108.181 593.939, 124.610 608.731, 125.834 608.225 C 126.758 607.844, 130.290 597.286, 135.612 579 C 141.298 559.461, 143.931 552.334, 150.723 538.087 C 155.612 527.832, 157.045 525.803, 164.841 518.087 C 172.417 510.590, 176.303 507.850, 195.462 496.500 C 207.531 489.350, 219.146 482.720, 221.273 481.767 C 226.074 479.617, 243.342 474.222, 260.500 469.511 C 272.094 466.329, 287.180 460.256, 293.912 456.060 C 295.239 455.234, 297.541 452.639, 299.027 450.296 L 301.730 446.034 306.692 451.767 C 311.258 457.041, 311.796 458.220, 313.411 466.500 C 314.377 471.450, 315.974 477.343, 316.959 479.596 C 318.963 484.175, 324.979 489.638, 334.201 495.250 C 342.055 500.030, 345.466 500.057, 358.500 495.440 C 364 493.491, 374.350 489.934, 381.500 487.535 C 393.815 483.403, 404.819 478.859, 413.302 474.401 C 417.072 472.420, 417.087 472.388, 415.091 470.582 C 413.480 469.124, 412.175 468.897, 408.551 469.440 C 406.061 469.813, 403.295 470.848, 402.404 471.739 C 401.512 472.630, 399.370 474.066, 397.642 474.930 C 395.914 475.793, 394.067 477.486, 393.538 478.692 C 392.302 481.508, 384.169 485.455, 376.500 486.960 C 373.200 487.608, 369.712 488.362, 368.750 488.636 C 367.788 488.910, 367 488.654, 367 488.067 C 367 487.480, 367.886 487, 368.969 487 C 370.308 487, 370.753 486.520, 370.362 485.500 C 370.045 484.675, 370.303 484, 370.935 484 C 371.567 484, 373.050 483.100, 374.230 482 L 376.377 480 374.189 480 C 371.958 480, 371.156 477.640, 373 476.500 C 374.874 475.342, 374.005 472.741, 370.700 469.618 C 368.885 467.903, 367.094 465.700, 366.721 464.723 C 366.092 463.076, 364.672 462.992, 347.271 463.579 C 335.065 463.991, 327.626 463.848, 326 463.170 L 323.500 462.127 326.500 462.065 C 331.648 461.960, 347 458.838, 347 457.896 C 347 457.403, 348.350 457, 350 457 C 354.657 457, 360.490 450.606, 361.921 443.931 C 362.775 439.950, 362.769 438.475, 361.895 437.935 C 361.129 437.462, 361.408 437.005, 362.716 436.590 C 363.805 436.244, 365.205 434.845, 365.827 433.481 C 367.025 430.851, 366.199 430.201, 364.200 432.200 C 363.418 432.982, 363 433.024, 363 432.322 C 363 431.234, 366.013 428.288, 366.654 428.750 C 367.949 429.685, 368.918 428.538, 369.187 425.750 C 369.427 423.260, 370.026 422.425, 371.748 422.181 C 373.250 421.967, 374.190 420.971, 374.580 419.181 C 374.900 417.706, 375.555 415.375, 376.034 414 C 377.923 408.577, 377.146 403, 374.500 403 C 373.793 403, 372.936 403.726, 372.595 404.613 C 372.129 405.829, 371.649 405.954, 370.646 405.121 C 369.915 404.514, 369.082 404.252, 368.795 404.538 C 368.509 404.825, 366.817 403.697, 365.036 402.033 C 363.254 400.369, 361.392 399.257, 360.898 399.563 C 360.404 399.868, 360 399.593, 360 398.952 C 360 398.311, 359.332 398.042, 358.515 398.356 C 356.925 398.966, 354.788 395.989, 355.236 393.791 C 355.406 392.962, 354.177 392.390, 351.803 392.193 C 349.065 391.965, 348.250 391.511, 348.660 390.443 C 348.965 389.649, 349.771 389, 350.452 389 C 352.466 389, 354.839 385.691, 354.755 383 C 354.712 381.625, 355.023 379.713, 355.446 378.750 C 356.113 377.231, 355.639 377.005, 351.857 377.035 C 349.461 377.054, 343.900 377.720, 339.500 378.515 C 335.100 379.310, 329.025 379.977, 326 379.998 C 322.975 380.018, 317.381 380.695, 313.569 381.503 C 309.757 382.311, 306.452 382.786, 306.225 382.559 C 305.388 381.721, 313.752 379.881, 322.265 379.030 C 329.256 378.330, 331.607 377.667, 333.882 375.753 C 337.592 372.631, 339.909 371.782, 355.186 367.951 C 359.943 366.758, 361.404 365.216, 360.357 362.489 C 359.930 361.374, 360.234 361.152, 361.517 361.645 C 362.696 362.097, 363.852 361.537, 365.106 359.906 C 366.123 358.583, 366.966 357.193, 366.978 356.817 C 367.003 356.045, 362.917 354.492, 361.709 354.815 C 361.275 354.932, 359.975 354.522, 358.821 353.904 C 356.104 352.450, 351.248 352.108, 347.651 353.118 C 345.626 353.686, 344.092 353.451, 342.342 352.304 C 340.882 351.348, 336.871 350.499, 332.479 350.217 C 326.937 349.861, 324.651 349.272, 323.383 347.871 C 322.452 346.842, 321.062 346, 320.295 346 C 317.456 346, 313 342.930, 313 340.974 C 313 339.888, 313.639 339, 314.420 339 C 315.201 339, 317.789 337.004, 320.170 334.564 C 323.304 331.353, 324.799 328.798, 325.584 325.314 C 326.609 320.757, 326.507 320.264, 323.673 316.086 L 320.679 311.673 323.464 309.278 C 325.719 307.337, 326.352 305.801, 326.793 301.191 C 327.774 290.948, 327.410 283.574, 325.714 279.305 C 323.075 272.662, 321.449 262, 323.075 262 C 323.584 262, 324 261.523, 324 260.941 C 324 260.359, 323.550 260.160, 323 260.500 C 322.450 260.840, 322 260.690, 322 260.166 C 322 259.642, 322.675 258.955, 323.500 258.638 C 324.325 258.322, 325 257.204, 325 256.154 C 325 255.104, 325.675 253.685, 326.500 253 C 327.325 252.315, 328 250.878, 328 249.806 C 328 248.001, 330.232 244.882, 331.464 244.964 C 333.570 245.105, 334 244.762, 334 242.941 C 334 241.809, 333.619 241.117, 333.153 241.405 C 332.688 241.693, 330.965 240.617, 329.325 239.013 C 327.170 236.907, 325.724 236.259, 324.115 236.680 C 322.762 237.034, 322.093 237.800, 322.412 238.631 C 323.226 240.753, 317.324 240.396, 316.107 238.250 C 315.168 236.592, 315.045 236.596, 313.770 238.321 C 313.029 239.322, 311.805 239.997, 311.050 239.821 C 310.160 239.613, 309.372 240.890, 308.814 243.441 C 307.789 248.127, 308.162 247.670, 304.637 248.555 C 302.006 249.215, 301.836 249.092, 302.497 247.011 C 302.982 245.481, 302.860 244.969, 302.119 245.427 C 301.432 245.851, 301.245 245.525, 301.618 244.552 C 302.004 243.546, 301.648 243, 300.607 243 C 299.723 243, 298.986 243.338, 298.968 243.750 C 298.951 244.162, 298.290 245.354, 297.499 246.398 C 296.403 247.847, 295.743 248.032, 294.714 247.178 C 293.602 246.255, 293.476 246.915, 293.993 250.948 C 294.338 253.638, 295.231 256.573, 295.976 257.471 C 297.155 258.891, 296.902 259.497, 294.040 262.111 C 291.953 264.017, 290.154 264.887, 289.124 264.489 C 288.231 264.143, 286.262 263.610, 284.750 263.305 C 282.525 262.856, 282.005 263.108, 282.026 264.625 C 282.043 265.840, 283.528 267.182, 286.248 268.439 C 288.557 269.505, 291.499 271.515, 292.788 272.905 C 294.790 275.066, 294.917 275.588, 293.659 276.508 C 292.586 277.292, 292.456 278.063, 293.177 279.352 C 293.722 280.325, 293.934 281.729, 293.650 282.471 C 292.971 284.239, 283.581 286.928, 275.422 287.690 C 269.524 288.240, 268.711 288.079, 266.365 285.897 C 264.948 284.579, 263.347 282.375, 262.808 281 L 261.828 278.500 258.991 281.870 C 257.431 283.723, 256.393 285.860, 256.684 286.620 C 257.039 287.545, 256.462 288, 254.936 288 C 253.683 288, 251.832 288.747, 250.823 289.661 C 247.945 292.265, 247.569 290.521, 249.950 285.604 C 252.289 280.772, 258.400 275.983, 264.858 273.921 C 274.060 270.983, 269.710 269.960, 259.769 272.724 C 255.163 274.005, 252.421 275.547, 249.111 278.718 C 246.660 281.067, 244.469 282.802, 244.242 282.575 C 244.015 282.348, 244.560 280.623, 245.453 278.741 C 248.128 273.103, 250.634 271.750, 266.285 267.496 C 269.467 266.631, 271.856 265.576, 271.593 265.151 C 270.949 264.109, 255.715 266.398, 249.274 268.505 C 246.426 269.437, 243.512 269.990, 242.798 269.734 C 242.084 269.479, 240.644 269.712, 239.598 270.251 C 238.048 271.051, 237.811 270.934, 238.317 269.616 C 238.658 268.727, 238.501 268, 237.969 268 C 237.436 268, 237 268.627, 237 269.393 C 237 271.128, 234.287 272.273, 233.437 270.898 C 233.092 270.340, 231.591 270.151, 230.101 270.478 C 228.160 270.904, 224.430 269.791, 216.946 266.553 C 208.449 262.876, 205.381 262.029, 200.500 262.013 C 192.841 261.987, 188.685 259.628, 186.962 254.327 C 186.277 252.222, 184.444 248.877, 182.889 246.894 C 175.764 237.811, 175.519 226.625, 182.158 213.509 C 184.954 207.986, 188.063 203.379, 205.443 179.007 C 208.775 174.336, 213.109 168.036, 215.075 165.007 C 225.595 148.802, 252.432 121.793, 269.500 110.234 C 279.170 103.685, 297.692 94.432, 308.847 90.576 L 319.194 87 338.877 87 C 357.302 87, 375.388 88.472, 389 91.079 C 398.630 92.924, 424.291 101.118, 430.242 104.249 C 437.524 108.081, 449.646 120.601, 457.229 132.125 C 474.799 158.825, 483.733 182.256, 488.532 214.216 C 489.381 219.872, 490.760 227.140, 491.595 230.366 C 492.686 234.575, 492.839 237.022, 492.140 239.028 C 491.300 241.437, 491.564 242.272, 494.048 245.054 C 498.014 249.496, 501.444 260.035, 501.352 267.500 C 501.255 275.399, 494.320 299.146, 488.358 311.990 C 483.476 322.509, 480.718 325.407, 473.580 327.518 L 469.500 328.725 469.768 359.112 C 469.995 384.900, 470.352 391.203, 472.127 400.751 L 474.217 412.003 478.359 413.875 C 484.173 416.504, 488.124 421.094, 493.533 431.500 C 500.892 445.657, 505.808 451.834, 515.656 459.296 C 520.520 462.981, 525.742 467.553, 527.260 469.457 C 530.816 473.916, 536.710 477.935, 547.763 483.436 C 556.007 487.538, 580.946 498, 582.483 498 C 584.153 498, 598.063 505.591, 603.500 509.470 C 606.800 511.824, 613.775 517.625, 619 522.362 C 624.225 527.098, 628.966 530.980, 629.536 530.987 C 630.789 531.003, 639.774 516.393, 647.364 502 C 666.747 465.241, 681.744 414.975, 684.592 377.219 C 684.977 372.114, 685.676 367.700, 686.146 367.410 C 686.616 367.120, 687 355.632, 687 341.882 C 687 328.132, 686.614 317.121, 686.141 317.413 C 685.669 317.705, 684.970 313.794, 684.587 308.722 C 682.978 287.391, 676.090 255.969, 667.658 231.500 C 654.436 193.130, 635.997 159.656, 610.370 127.500 C 599.113 113.376, 572.624 86.887, 558.500 75.630 C 505.891 33.702, 444.772 8.540, 378.446 1.501 C 361.264 -0.322, 323.252 -0.296, 306.338 1.550 M 379.526 246.959 C 379.112 247.627, 377.894 247.944, 376.819 247.663 C 373.249 246.729, 365 250.619, 365 253.236 C 365 254.250, 383.211 253.606, 384.951 252.530 C 386.730 251.431, 386.110 249, 384.050 249 C 382.977 249, 381.689 248.267, 381.188 247.372 C 380.514 246.167, 380.081 246.059, 379.526 246.959 M 373.948 261.563 C 372.760 262.994, 372.868 263.150, 374.837 262.846 C 376.070 262.656, 377.095 262.061, 377.115 261.525 C 377.176 259.842, 375.358 259.864, 373.948 261.563 M 366.082 264.560 C 362.562 268.568, 362.719 269.560, 367.020 270.504 C 370.349 271.236, 370.117 272.997, 366.691 273.006 C 362.018 273.017, 357 275.055, 357 276.940 C 357 277.955, 357.675 279.045, 358.500 279.362 C 359.325 279.678, 360 280.760, 360 281.766 C 360 282.771, 361.845 285.373, 364.100 287.547 L 368.200 291.500 367.673 298.810 C 367.382 302.831, 366.663 306.701, 366.074 307.411 C 364.897 308.830, 367.348 312.672, 376.326 323.477 C 381.739 329.992, 384.096 334.677, 384.224 339.173 C 384.269 340.767, 384.695 342.311, 385.170 342.605 C 385.644 342.898, 385.769 343.564, 385.447 344.085 C 385.125 344.606, 384.465 344.788, 383.981 344.488 C 382.844 343.785, 380.514 347.997, 380.843 350.161 C 380.982 351.075, 380.624 352.114, 380.048 352.470 C 379.472 352.827, 379.014 353.654, 379.032 354.309 C 379.049 354.964, 379.694 354.667, 380.465 353.650 C 381.360 352.468, 382.343 352.098, 383.183 352.625 C 383.908 353.079, 385.291 353.320, 386.257 353.161 C 387.223 353.002, 388.273 353.547, 388.590 354.373 C 388.906 355.198, 389.809 355.627, 390.595 355.325 C 391.382 355.023, 392.706 355.341, 393.537 356.031 C 394.368 356.721, 395.374 356.959, 395.773 356.561 C 396.171 356.162, 395.710 355.261, 394.748 354.558 C 392.605 352.991, 392.466 351, 394.500 351 C 395.325 351, 396 350.550, 396 350 C 396 347.583, 400.665 349.207, 403.335 352.553 C 407.658 357.971, 409.531 366.269, 405.275 361.147 C 404.299 359.973, 403.044 359.346, 402.486 359.756 C 400.914 360.911, 395.635 372.289, 395.762 374.250 C 395.825 375.212, 395.229 376, 394.438 376 C 392.912 376, 392.442 378.537, 393.811 379.383 C 394.979 380.105, 394.387 386.143, 393.069 386.957 C 392.458 387.335, 392.159 388.736, 392.405 390.072 C 392.650 391.407, 392.885 393.245, 392.926 394.156 C 393.037 396.629, 397 395.277, 397 392.767 C 397 391.213, 397.479 390.892, 399.149 391.329 C 403.500 392.467, 406.937 390.883, 410.016 386.322 C 411.657 383.890, 413 380.994, 413 379.888 C 413 378.781, 413.725 375.659, 414.611 372.949 C 415.648 369.780, 415.948 367.039, 415.453 365.262 C 414.479 361.768, 414.339 361.014, 414.152 358.240 C 414.069 356.997, 413.212 355.306, 412.250 354.482 C 410.779 353.223, 410.580 351.791, 411 345.492 C 411.275 341.371, 411.154 338, 410.731 338 C 410.308 338, 410.244 336.875, 410.589 335.500 C 410.976 333.960, 410.791 333, 410.108 333 C 409.499 333, 409 332.100, 409 331 C 409 329.900, 409.645 329, 410.433 329 C 412.410 329, 413.248 325.783, 412.076 322.699 C 411.410 320.948, 411.439 320.020, 412.168 319.777 C 412.756 319.581, 413.349 317.414, 413.487 314.961 C 413.749 310.279, 415.888 304, 417.219 304 C 417.649 304, 418 303.394, 418 302.654 C 418 301.913, 418.705 299.895, 419.566 298.169 C 421.011 295.272, 420.991 294.779, 419.316 291.765 C 418.317 289.969, 417.105 288.213, 416.622 287.862 C 416.139 287.511, 416.028 286.764, 416.375 286.202 C 417.441 284.477, 415.998 282.242, 413.022 281.009 C 411.404 280.339, 406.930 279.978, 402.592 280.168 C 397.195 280.404, 394.996 280.155, 394.998 279.309 C 394.999 278.654, 395.453 277.838, 396.008 277.495 C 398.136 276.180, 393.719 273.541, 389.592 273.663 C 387.342 273.730, 384.851 273.270, 384.058 272.642 C 382.948 271.763, 382.789 271.788, 383.367 272.750 C 383.842 273.541, 383.534 274, 382.528 274 C 381.653 274, 380.679 273.328, 380.364 272.506 C 380.048 271.684, 379.363 271.275, 378.842 271.598 C 377.524 272.412, 372.195 266.626, 371.421 263.539 C 370.577 260.178, 369.798 260.327, 366.082 264.560 M 267.639 277.694 C 266.444 278.889, 266.994 281, 268.500 281 C 269.325 281, 270 280.352, 270 279.559 C 270 277.888, 268.573 276.761, 267.639 277.694 M 0.435 343 C 0.435 357.025, 0.575 362.762, 0.747 355.750 C 0.919 348.738, 0.919 337.262, 0.747 330.250 C 0.575 323.238, 0.435 328.975, 0.435 343 M 298.223 341.557 C 297 342.413, 296 343.933, 296 344.934 C 296 348.069, 298.786 349.344, 305.812 349.424 L 312.500 349.500 312.500 346.619 C 312.500 341.444, 303.127 338.121, 298.223 341.557 M 288.238 384.872 C 288.440 385.841, 289.371 386.385, 290.538 386.215 C 291.617 386.058, 295.079 385.579, 298.231 385.151 C 301.383 384.722, 304.156 384.175, 304.394 383.936 C 304.632 383.696, 301.018 383.442, 296.363 383.372 C 289.033 383.261, 287.946 383.462, 288.238 384.872" stroke="none" fill="#e2e6e7" fill-rule="evenodd"></path></svg><style>@media (prefers-color-scheme: light) { :root { filter: none; } }
@media (prefers-color-scheme: dark) { :root { filter: none; } }
</style></svg>